<svg xmlns="http://www.w3.org/2000/svg" viewBox="0 0 128 128" width="128" height="128"><defs>
<linearGradient id="glia" x1="0" y1="1" x2="1" y2="0"><stop offset="0" stop-color="#754711"/><stop offset=".55" stop-color="#AF8B51"/><stop offset="1" stop-color="#C9A86C"/></linearGradient>
<linearGradient id="gdia" x1="0" y1="1" x2="1" y2="0"><stop offset="0" stop-color="#AF8B51"/><stop offset=".6" stop-color="#D8BE8B"/><stop offset="1" stop-color="#E9D6B0"/></linearGradient>
<linearGradient id="bgia" x1="0" y1="0" x2="1" y2="1"><stop offset="0" stop-color="#2F5937"/><stop offset=".55" stop-color="#225C54"/><stop offset="1" stop-color="#0D3E43"/></linearGradient>
</defs>
<rect width="128" height="128" rx="28" fill="url(#bgia)"/><rect x="3" y="3" width="122" height="122" rx="25" fill="none" stroke="url(#gdia)" stroke-width="1.2" opacity=".55"/>
<g transform="translate(14,16) scale(0.84)"><circle cx="34" cy="44" r="9" fill="#9CC2B0"/><path d="M17,80 C19,59 25,56 34,56 C43,56 49,59 51,80 Z" fill="#9CC2B0"/><circle cx="86" cy="44" r="9" fill="#9CC2B0"/><path d="M69,80 C71,59 77,56 86,56 C95,56 101,59 103,80 Z" fill="#9CC2B0"/><circle cx="60" cy="32" r="12" fill="url(#gdia)"/><path d="M38,80 C40,50 48,47 60,47 C72,47 80,50 82,80 Z" fill="url(#gdia)"/><path d="M14,88 Q60,98 106,88" fill="none" stroke="url(#gdia)" stroke-width="2.4" stroke-linecap="round"/></g></svg>